simulation
nRows=25
nColumns=15
endheader
time  TH_x TH_y TH_z SC_y  SC_z  SC_x  AC_y  AC_z  AC_x  GH_y  GH_z  GH_yy  EL_x  PS_y
0.000000  0.000000  0.000000  0.000000  -30.103719  -0.583282  8.006261  63.674945  21.860693  2.897607  44.729472  51.867890  -54.736231  25.328397  0.000000
0.010000  0.000000  0.000000  0.000000  -30.104038  -0.583269  8.007062  63.675840  21.861394  2.898746  44.729906  51.869246  -54.736295  25.329146  0.000000
0.020000  0.000000  0.000000  0.000000  -30.103713  -0.583600  8.008106  63.677504  21.862153  2.900580  44.730877  51.871023  -54.736416  25.330224  0.000000
0.030000  0.000000  0.000000  0.000000  -30.099368  -0.587262  8.009813  63.684840  21.862658  2.909050  44.736028  51.875865  -54.738293  25.333854  0.000000
0.040000  0.000000  0.000000  0.000000  -30.100437  -0.587838  8.008455  63.685437  21.861433  2.909190  44.736590  51.875383  -54.738753  25.334174  0.000000
0.050000  0.000000  0.000000  0.000000  -30.101037  -0.588873  8.006550  63.686662  21.859578  2.909614  44.737707  51.874695  -54.739317  25.334643  0.000000
0.060000  0.000000  0.000000  0.000000  -30.101405  -0.590400  8.003719  63.688304  21.856789  2.910035  44.739277  51.873448  -54.740029  25.335127  0.000000
0.070000  0.000000  0.000000  0.000000  -30.125693  -0.605572  7.863897  63.750494  21.726396  2.988496  44.761097  51.802413  -54.951693  25.363044  0.000000
0.080000  0.000000  0.000000  0.000000  -30.126102  -0.606461  7.860878  63.751041  21.723974  2.987357  44.761956  51.800025  -54.952369  25.362912  0.000000
0.090000  0.000000  0.000000  0.000000  -30.122245  -0.618592  7.845172  63.755743  21.708674  2.989429  44.767087  51.789476  -54.962539  25.363853  0.000000
0.100000  0.000000  0.000000  0.000000  -30.123482  -0.620715  7.841582  63.755948  21.705360  2.988677  44.767601  51.786991  -54.963941  25.363809  0.000000
0.110000  0.000000  0.000000  0.000000  -30.260386  -0.530828  7.754389  63.845900  21.892636  3.107400  45.028058  51.442257  -56.139445  25.637013  0.000000
0.120000  0.000000  0.000000  0.000000  -30.259157  -0.538476  7.736922  63.846648  21.876424  3.105033  45.035121  51.433934  -56.141299  25.631266  0.000000
0.130000  0.000000  0.000000  0.000000  -30.287830  -0.591664  7.606174  63.800270  21.745667  3.165675  45.086735  51.497702  -56.280008  25.544655  0.000000
0.140000  0.000000  0.000000  0.000000  -30.285747  -0.600699  7.588360  63.802440  21.730858  3.161098  45.094501  51.486422  -56.284335  25.543438  0.000000
0.150000  0.000000  0.000000  0.000000  -30.299863  -0.669338  7.546072  63.797874  21.687639  3.182962  45.106898  51.486418  -56.351344  25.555830  0.000000
0.160000  0.000000  0.000000  0.000000  -30.295733  -0.675137  7.518976  63.807130  21.664167  3.177895  45.119020  51.470871  -56.359617  25.555286  0.000000
0.170000  0.000000  0.000000  0.000000  -30.472630  -0.619863  7.131353  63.209194  22.186887  2.910966  46.580248  51.734536  -57.949245  25.436839  0.000000
0.180000  0.000000  0.000000  0.000000  -30.466903  -0.631393  7.103555  63.217546  22.162442  2.905334  46.589202  51.715618  -57.950175  25.434737  0.000000
0.190000  0.000000  0.000000  0.000000  -30.472649  -0.722269  7.050770  63.228659  22.097834  2.935620  46.585155  51.699419  -57.985356  25.442370  0.000000
0.200000  0.000000  0.000000  0.000000  -30.467565  -0.730667  7.015348  63.240567  22.066352  2.928239  46.595308  51.676858  -57.990845  25.440028  0.000000
0.210000  0.000000  0.000000  0.000000  -30.485593  -0.834546  6.941319  63.265135  21.973348  2.974465  46.582385  51.662566  -58.065728  25.453799  0.000000
0.220000  0.000000  0.000000  0.000000  -30.746350  -0.722828  6.457778  63.139151  22.409333  2.988220  47.207907  51.592158  -59.070597  25.472457  0.000000
0.230000  0.000000  0.000000  0.000000  -30.740158  -0.782660  6.413328  63.155229  22.360620  3.002905  47.214193  51.573777  -59.084607  25.474118  0.000000
0.240000  0.000000  0.000000  0.000000  -30.741816  -0.861329  6.352955  63.177648  22.291301  3.027726  47.215243  51.552957  -59.119798  25.477187  0.000000
